<svg xmlns="http://www.w3.org/2000/svg" xmlns:xlink="http://www.w3.org/1999/xlink" viewBox="0 0 114 114">
  <defs>
    <style>
      .cls-1 {
        fill: #fff;
        stroke: #cecece;
      }

      .cls-2 {
        fill: #484848;
        font-size: 14px;
        font-family: OpenSans-Regular, Open Sans;
      }

      .cls-3 {
        fill: #0e6900;
      }

      .cls-4 {
        stroke: none;
      }

      .cls-5 {
        fill: none;
      }

      .cls-6 {
        filter: url(#Ellipse_2);
      }
    </style>
    <filter id="Ellipse_2" x="0" y="0" width="114" height="114" filterUnits="userSpaceOnUse">
      <feOffset dy="3" input="SourceAlpha"/>
      <feGaussianBlur stdDeviation="3" result="blur"/>
      <feFlood flood-opacity="0.161"/>
      <feComposite operator="in" in2="blur"/>
      <feComposite in="SourceGraphic"/>
    </filter>
  </defs>
  <g id="Group_59" data-name="Group 59" transform="translate(-194 -510)">
    <g class="cls-6" transform="matrix(1, 0, 0, 1, 194, 510)">
      <g id="Ellipse_2-2" data-name="Ellipse 2" class="cls-1" transform="translate(9 6)">
        <circle class="cls-4" cx="48" cy="48" r="48"/>
        <circle class="cls-5" cx="48" cy="48" r="47.5"/>
      </g>
    </g>
    <text id="Real_" data-name="Real " class="cls-2" transform="translate(251 596)"><tspan x="-15.736" y="0">Real </tspan></text>
    <path id="Path_35" data-name="Path 35" class="cls-3" d="M14.222-29.016A6.138,6.138,0,0,0,9.88-31.33,18.96,18.96,0,0,0,5.3-31.408a16.393,16.393,0,0,0,.286-4.836,9.15,9.15,0,0,0-1.612-4.94,2.663,2.663,0,0,0-2.444-1.092c-.572.052-.884.6-1.118,1.092-.234.468-.468,1.118-.754,1.872A31.054,31.054,0,0,1-3.094-33.28a17.234,17.234,0,0,1-2.418,3.094A14.109,14.109,0,0,1-7.9-28.262v-.806a1.344,1.344,0,0,0-.52-1.092,1.483,1.483,0,0,0-1.248-.312l-4.212.78a1.694,1.694,0,0,0-1.3,1.612v14.742a1.642,1.642,0,0,0,1.3,1.586l4.212.78a1.266,1.266,0,0,0,.312.026,1.452,1.452,0,0,0,.936-.312A1.418,1.418,0,0,0-7.9-12.35v-.6A12.977,12.977,0,0,0-5.85-11.882,27.484,27.484,0,0,0-1.17-10.4a25.812,25.812,0,0,0,4.992.65h.416a9.717,9.717,0,0,0,3.8-.624,9.391,9.391,0,0,0,3.718-3.614,24.453,24.453,0,0,0,2.574-5.85,19.165,19.165,0,0,0,.858-5.1A6.887,6.887,0,0,0,14.222-29.016Zm-1.2,8.788a22.664,22.664,0,0,1-2.418,5.512,7.707,7.707,0,0,1-3.094,3.094,9.385,9.385,0,0,1-3.64.52,24.948,24.948,0,0,1-4.732-.624c-3.094-.676-5.876-1.82-7.046-2.886V-26.7A14.928,14.928,0,0,0-4.55-29.224a17.545,17.545,0,0,0,2.6-3.328A32.842,32.842,0,0,0,.936-38.844c.234-.624.416-1.144.6-1.534a2.653,2.653,0,0,1,.286-.572,1.4,1.4,0,0,1,1.118.6,8.157,8.157,0,0,1,1.3,4.238,14.536,14.536,0,0,1-.494,5.3l-.338,1.04,1.066-.156a16.512,16.512,0,0,1,5.174-.052A5.211,5.211,0,0,1,13.1-28.262C14.092-26.806,14.066-23.738,13.026-20.228ZM-9.256-12.35a.091.091,0,0,1-.026.052.18.18,0,0,1-.13,0l-4.212-.78a.309.309,0,0,1-.208-.26V-28.08a.314.314,0,0,1,.208-.286l4.212-.78h.052c.052,0,.078,0,.078.026,0,0,.026,0,.026.052Z" transform="translate(252 579)"/>
  </g>
</svg>
