<svg xmlns="http://www.w3.org/2000/svg" xmlns:xlink="http://www.w3.org/1999/xlink" viewBox="0 0 114 114">
  <defs>
    <style>
      .cls-1, .cls-4 {
        fill: #fff;
      }

      .cls-1 {
        stroke: #cecece;
      }

      .cls-2 {
        fill: #7a1313;
        font-size: 14px;
        font-family: OpenSans-Regular, Open Sans;
      }

      .cls-3 {
        opacity: 0.8;
      }

      .cls-5 {
        stroke: none;
      }

      .cls-6 {
        fill: none;
      }

      .cls-7 {
        filter: url(#Ellipse_12);
      }
    </style>
    <filter id="Ellipse_12" x="0" y="0" width="114" height="114" filterUnits="userSpaceOnUse">
      <feOffset dy="3" input="SourceAlpha"/>
      <feGaussianBlur stdDeviation="3" result="blur"/>
      <feFlood flood-opacity="0.161"/>
      <feComposite operator="in" in2="blur"/>
      <feComposite in="SourceGraphic"/>
    </filter>
  </defs>
  <g id="Group_57" data-name="Group 57" transform="translate(-53 -510)">
    <g class="cls-7" transform="matrix(1, 0, 0, 1, 53, 510)">
      <g id="Ellipse_12-2" data-name="Ellipse 12" class="cls-1" transform="translate(9 6)">
        <circle class="cls-5" cx="48" cy="48" r="48"/>
        <circle class="cls-6" cx="48" cy="48" r="47.5"/>
      </g>
    </g>
    <text id="Fake" class="cls-2" transform="translate(110 596)"><tspan x="-15.107" y="0">Fake</tspan></text>
    <g id="Group_40" data-name="Group 40" class="cls-3" transform="translate(92 531.627)">
      <path id="Path_11" data-name="Path 11" d="M14.092,12.725a65.192,65.192,0,0,1-8.865-.509,17.042,17.042,0,0,1-4.3-.977A2.225,2.225,0,0,1,.205,10.8a.5.5,0,0,1,0-.805,2.134,2.134,0,0,1,.72-.451,15.661,15.661,0,0,1,3.838-.907.613.613,0,0,0,.6-.521q.86-3.218,1.757-6.428A2.062,2.062,0,0,1,9.239-.007a2.856,2.856,0,0,1,.894.225,11.982,11.982,0,0,0,2.717.946A6.519,6.519,0,0,0,16.281.814q.77-.327,1.551-.632a2.085,2.085,0,0,1,2.929,1.493c.587,2.167,1.19,4.329,1.77,6.5a.543.543,0,0,0,.536.452,18.263,18.263,0,0,1,3.374.721,3.947,3.947,0,0,1,1.059.5c.486.347.489.745,0,1.081a6.7,6.7,0,0,1-2.4.864,39.173,39.173,0,0,1-5.467.727C17.731,12.665,15.834,12.736,14.092,12.725Z" transform="translate(3.726 0.009)"/>
      <g id="Group_16" data-name="Group 16" transform="translate(0 3.276)">
        <path id="Path_13" data-name="Path 13" d="M11.789,147.042a38.309,38.309,0,0,1-8.324-1.9A5.809,5.809,0,0,1,0,142.46v-4.054c.046-.289.1-.576.137-.865.474-3.567,1.523-4.711,5.064-5.395a15.208,15.208,0,0,0,6.338-2.466c.481-.356.68-.111.964.264a30.887,30.887,0,0,0,4.965,4.713.6.6,0,0,0,.865,0,29.322,29.322,0,0,0,4.9-4.648c.446-.594.726-.559,1.248-.189a12.956,12.956,0,0,0,4.829,2.039c.973.21,1.951.412,2.913.663a4.06,4.06,0,0,1,2.894,2.705,21.651,21.651,0,0,1,.656,2.82v4.582c-1.167,1.77-3.023,2.434-4.91,3.017A47.509,47.509,0,0,1,24,147.041H11.789Z" transform="translate(0 -106.682)"/>
        <path id="Path_14" data-name="Path 14" d="M59.04,0a11.783,11.783,0,0,1,4.191,1.969C65.041,3.19,65.482,5.1,65.768,7.08a16.253,16.253,0,0,0,.659,3.324,4.531,4.531,0,0,1-.865,4.39,5.757,5.757,0,0,0-.735,1.183,13.688,13.688,0,0,1-3.291,4.737c-2.79,2.506-5.915,2.476-8.661-.07a13.176,13.176,0,0,1-2.4-3.023c-.633-1.079-1.19-2.189-1.891-3.243a4.232,4.232,0,0,1-.314-4.662,1.928,1.928,0,0,0,.215-.844c.055-.613.079-1.23.155-1.842.5-3.978,2.087-5.416,6.193-6.858.22-.078.453-.116.68-.173Z" transform="translate(-39.301)"/>
      </g>
      <path id="Path_12" data-name="Path 12" class="cls-4" d="M67.311,197.408a1.533,1.533,0,0,1-1.137-.4c-.149-.13-.312-.244-.472-.36a1.225,1.225,0,0,0-1.44,0,1.2,1.2,0,0,0-.172.13,2.279,2.279,0,0,1-2.222.563,9.685,9.685,0,0,1-2.508-.811,2.511,2.511,0,0,1-1.182-1.14,8.519,8.519,0,0,1-.752-2.047.735.735,0,0,1,.858-.944,63.253,63.253,0,0,0,7.87.321,53.329,53.329,0,0,0,5.438-.346.758.758,0,0,1,.848.884,8.1,8.1,0,0,1-.834,2.272,2.3,2.3,0,0,1-.84.892A8.073,8.073,0,0,1,67.311,197.408ZM61.953,195.7a1.476,1.476,0,0,0,1.171-.477.567.567,0,0,0-.3-1,4.272,4.272,0,0,0-.9-.146,5.255,5.255,0,0,0-1.479.036c-.4.079-.512.263-.382.659a1.037,1.037,0,0,0,.437.533A2.9,2.9,0,0,0,61.953,195.7Zm6.586-1.639c-.135,0-.271-.011-.4,0a4.43,4.43,0,0,0-1.243.216.476.476,0,0,0-.3.711,1.055,1.055,0,0,0,.81.644,2.434,2.434,0,0,0,1.971-.415,1.07,1.07,0,0,0,.423-.544c.1-.3.039-.433-.27-.525A2.975,2.975,0,0,0,68.539,194.058Z" transform="translate(-47.188 -178.851)"/>
    </g>
  </g>
</svg>
