<svg xmlns="http://www.w3.org/2000/svg" xmlns:xlink="http://www.w3.org/1999/xlink" viewBox="0 0 114 114">
  <defs>
    <style>
      .cls-1, .cls-4 {
        fill: #fff;
      }

      .cls-1 {
        stroke: #cecece;
      }

      .cls-2 {
        fill: #0e6900;
        font-size: 14px;
        font-family: OpenSans-Regular, Open Sans;
      }

      .cls-3 {
        opacity: 0.8;
      }

      .cls-5 {
        stroke: none;
      }

      .cls-6 {
        fill: none;
      }

      .cls-7 {
        filter: url(#Ellipse_11);
      }
    </style>
    <filter id="Ellipse_11" x="0" y="0" width="114" height="114" filterUnits="userSpaceOnUse">
      <feOffset dy="3" input="SourceAlpha"/>
      <feGaussianBlur stdDeviation="3" result="blur"/>
      <feFlood flood-opacity="0.161"/>
      <feComposite operator="in" in2="blur"/>
      <feComposite in="SourceGraphic"/>
    </filter>
  </defs>
  <g id="Group_58" data-name="Group 58" transform="translate(-194 -510)">
    <g class="cls-7" transform="matrix(1, 0, 0, 1, 194, 510)">
      <g id="Ellipse_11-2" data-name="Ellipse 11" class="cls-1" transform="translate(9 6)">
        <circle class="cls-5" cx="48" cy="48" r="48"/>
        <circle class="cls-6" cx="48" cy="48" r="47.5"/>
      </g>
    </g>
    <text id="Vouch_" data-name="Vouch " class="cls-2" transform="translate(251 596)"><tspan x="-22.138" y="0">Vouch </tspan></text>
    <g id="Group_41" data-name="Group 41" transform="translate(-0.183 8)">
      <g id="Group_14" data-name="Group 14" class="cls-3" transform="translate(233.183 526.903)">
        <path id="Path_13" data-name="Path 13" d="M11.789,147.042a38.309,38.309,0,0,1-8.324-1.9A5.809,5.809,0,0,1,0,142.46v-4.054c.046-.289.1-.576.137-.865.474-3.567,1.523-4.711,5.064-5.395a15.208,15.208,0,0,0,6.338-2.466c.481-.356.68-.111.964.264a30.887,30.887,0,0,0,4.965,4.713.6.6,0,0,0,.865,0,29.322,29.322,0,0,0,4.9-4.648c.446-.594.726-.559,1.248-.189a12.956,12.956,0,0,0,4.829,2.039c.973.21,1.951.412,2.913.663a4.06,4.06,0,0,1,2.894,2.705,21.651,21.651,0,0,1,.656,2.82v4.582c-1.167,1.77-3.023,2.434-4.91,3.017A47.509,47.509,0,0,1,24,147.041H11.789Z" transform="translate(0 -106.682)"/>
        <path id="Path_14" data-name="Path 14" d="M59.04,0a11.783,11.783,0,0,1,4.191,1.969C65.041,3.19,65.482,5.1,65.768,7.08a16.253,16.253,0,0,0,.659,3.324,4.531,4.531,0,0,1-.865,4.39,5.757,5.757,0,0,0-.735,1.183,13.688,13.688,0,0,1-3.291,4.737c-2.79,2.506-5.915,2.476-8.661-.07a13.176,13.176,0,0,1-2.4-3.023c-.633-1.079-1.19-2.189-1.891-3.243a4.232,4.232,0,0,1-.314-4.662,1.928,1.928,0,0,0,.215-.844c.055-.613.079-1.23.155-1.842.5-3.978,2.087-5.416,6.193-6.858.22-.078.453-.116.68-.173Z" transform="translate(-39.301)"/>
      </g>
      <g id="Group_15" data-name="Group 15" transform="translate(246.838 535.144)">
        <path id="Path_15" data-name="Path 15" class="cls-4" d="M84.121,49.548l-4.29,4.29-.806.806a.581.581,0,0,1-.4.167.571.571,0,0,1-.4-.167l-.806-.806-2.147-2.145a.581.581,0,0,1-.167-.4.568.568,0,0,1,.167-.4l.806-.806a.578.578,0,0,1,.4-.167.568.568,0,0,1,.4.167l1.742,1.749,3.889-3.894a.581.581,0,0,1,.4-.167.571.571,0,0,1,.4.167l.806.806a.57.57,0,0,1,0,.806Z" transform="translate(-75.1 -47.77)"/>
      </g>
    </g>
  </g>
</svg>
